<?xml version="1.0" encoding="utf-8"?>
<!-- Generator: Adobe Illustrator 19.2.1, SVG Export Plug-In . SVG Version: 6.00 Build 0)  -->
<svg version="1.1" id="Layer_1" xmlns="http://www.w3.org/2000/svg" xmlns:xlink="http://www.w3.org/1999/xlink" x="0px" y="0px"
	 viewBox="0 0 114.3 130" style="enable-background:new 0 0 114.3 130;" xml:space="preserve">
<style type="text/css">
	.st0{fill:#010101;}
</style>
<g>
	<path class="st0" d="M106.9,129.7H7.5c-4.1,0-7.5-3.4-7.5-7.5V65c0-4.1,3.4-7.5,7.5-7.5h99.4c4.1,0,7.5,3.4,7.5,7.5v57.2
		C114.3,126.3,111,129.7,106.9,129.7z M7.5,58.2c-3.6,0-6.7,3.1-6.7,6.8v57.2c0,3.7,3.1,6.8,6.7,6.8h99.4c3.6,0,6.7-3.1,6.7-6.8V65
		c0-3.7-3-6.8-6.7-6.8H7.5z M60.7,115.4h-7.1c-2.2,0-3.9-1.7-3.9-4V98.9c-4.4-2.6-7.1-7.4-7.1-12.5c0-8.1,6.5-14.7,14.6-14.7
		c8,0,14.6,6.6,14.6,14.7c0,5.1-2.7,9.9-7.1,12.5v12.5C64.6,113.7,62.9,115.4,60.7,115.4z M57.2,72.5c-7.6,0-13.8,6.2-13.8,13.9
		c0,4.9,2.6,9.5,6.9,12l0.2,0.1v12.9c0,1.8,1.4,3.2,3.2,3.2h7.1c1.8,0,3.2-1.4,3.2-3.2V98.5l0.2-0.1c4.3-2.5,6.9-7.1,6.9-12
		C71,78.8,64.8,72.5,57.2,72.5z M92.7,54.7h-7.1c-2.2,0-3.9-1.7-3.9-3.9V40c0-13.6-11-24.6-24.5-24.6S32.7,26.4,32.7,40v10.7
		c0,2.2-1.7,3.9-3.9,3.9h-7.1c-2.2,0-3.9-1.7-3.9-3.9V40c0-21.9,17.7-39.7,39.4-39.7c21.7,0,39.4,17.8,39.4,39.7v10.7
		C96.6,52.9,94.9,54.7,92.7,54.7z M57.2,14.6C71.1,14.6,82.4,26,82.4,40v10.7c0,1.8,1.4,3.2,3.2,3.2h7.1c1.8,0,3.2-1.4,3.2-3.2V40
		C95.8,18.5,78.5,1,57.2,1C35.8,1,18.5,18.5,18.5,40v10.7c0,1.8,1.4,3.2,3.2,3.2h7.1c1.8,0,3.2-1.4,3.2-3.2V40
		C31.9,26,43.3,14.6,57.2,14.6z"/>
</g>
</svg>
