<?xml version="1.0" encoding="utf-8"?>
<!-- Generator: Adobe Illustrator 19.2.1, SVG Export Plug-In . SVG Version: 6.00 Build 0)  -->
<svg version="1.1" id="Layer_1" xmlns="http://www.w3.org/2000/svg" xmlns:xlink="http://www.w3.org/1999/xlink" x="0px" y="0px"
	 viewBox="0 0 151.9 130" style="enable-background:new 0 0 151.9 130;" xml:space="preserve">
<style type="text/css">
	.st0{fill:#010101;}
</style>
<g>
	<path class="st0" d="M75.9,129.7c-1.5,0-2.9-0.6-4-1.6L19.7,77.7C19.5,77.5,0.5,60.3,0.5,39.9c0-24.8,15.1-39.6,40.4-39.6
		c14.5,0,28,11.1,35,17.9c7-6.8,20.6-17.9,35-17.9c25.3,0,40.4,14.8,40.4,39.6c0,18.1-14.7,33.5-19.1,37.8l-52.3,50.4
		C78.9,129.1,77.4,129.7,75.9,129.7z M40.9,1C16.1,1,1.3,15.6,1.3,39.9C1.3,60,20,77,20.2,77.1l52.3,50.5c0.9,0.9,2.1,1.4,3.4,1.4
		c1.3,0,2.5-0.5,3.4-1.4l52.4-50.4c4.4-4.2,18.9-19.5,18.9-37.3C150.6,15.6,135.8,1,111,1C96.6,1,83,12.3,76.2,19l-0.3,0.3L75.7,19
		C68.9,12.3,55.3,1,40.9,1z"/>
</g>
</svg>
