<?xml version="1.0" encoding="utf-8"?>
<!-- Generator: Adobe Illustrator 19.2.1, SVG Export Plug-In . SVG Version: 6.00 Build 0)  -->
<svg version="1.1" id="Layer_1" xmlns="http://www.w3.org/2000/svg" xmlns:xlink="http://www.w3.org/1999/xlink" x="0px" y="0px"
	 viewBox="0 0 103.8 130" style="enable-background:new 0 0 103.8 130;" xml:space="preserve">
<style type="text/css">
	.st0{fill:#010101;}
</style>
<g>
	<path class="st0" d="M85.4,129.8H3.8l-2.9-0.1l-0.1-0.4V76.1h9.5v44.4h66.2V76.1h9.4v50.8l-0.1,2.9L85.4,129.8z M1.6,129l2.2,0.1
		H85l0.1-2.2v-50h-7.9v44.4H9.5V76.8h-8V129z M16.8,112.6V101l0.4,0l51.3-0.1v11.6l-0.4,0L16.8,112.6z M17.5,101.8v10.1l50.2-0.1
		v-10.1L17.5,101.8z M68.7,98.6l-0.4,0l-51.2-4.7l1.1-11.5l0.4,0l51.1,4.7L68.7,98.6z M18,93.2L68,97.8l0.9-10l-50-4.6L18,93.2z
		 M70.2,84.2l-50-13.3l3-11.2l50,13.3L70.2,84.2z M21.1,70.3l48.5,13l2.6-9.8l-48.5-13L21.1,70.3z M73.7,70.7l-0.3-0.2L29.2,44.5
		l5.9-10l44.6,26.3L73.7,70.7z M30.2,44.2l43.3,25.5l5.2-8.7L35.4,35.5L30.2,44.2z M80.8,59.9L51.6,17.3l9.6-6.6l29.1,42.7
		L80.8,59.9z M52.7,17.5L81,58.8l8.3-5.7L61.1,11.7L52.7,17.5z M91.5,53L82.7,2.2l11.5-2L103,51L91.5,53z M83.5,2.8l8.6,49.4l10-1.7
		L93.5,1.1L83.5,2.8z"/>
</g>
</svg>
