<?xml version="1.0" encoding="utf-8"?>
<!-- Generator: Adobe Illustrator 19.2.1, SVG Export Plug-In . SVG Version: 6.00 Build 0)  -->
<svg version="1.1" id="Layer_1" xmlns="http://www.w3.org/2000/svg" xmlns:xlink="http://www.w3.org/1999/xlink" x="0px" y="0px"
	 viewBox="0 0 86.9 130" style="enable-background:new 0 0 86.9 130;" xml:space="preserve">
<style type="text/css">
	.st0{fill:#1D1D1B;}
</style>
<g>
	<path class="st0" d="M43.5,129.8c-5.3,0-10.2-3.2-12.5-8.1c-5.6-0.1-9.2-3.4-9.2-8.4c0-1.2,0.4-2.6,1-3.8c-2.3-1.6-3.6-4.2-3.6-6.9
		c0-2,0.7-3.9,2-5.4c-1.3-1.5-2-3.4-2-5.4c0-2.8,1.5-5.6,3.9-7.1C22.2,76.5,15.8,68.4,9,60.9c-5.8-6.4-8.7-14-8.7-22.7
		c0-23.4,22.4-37.9,43.1-37.9c20.7,0,43.1,14.5,43.1,37.9c0,8.7-2.9,16.3-8.7,22.7C71.1,68.4,64.7,76.5,64,84.8
		c2.4,1.5,3.9,4.3,3.9,7.1c0,2-0.7,3.9-2,5.4c1.3,1.5,2,3.4,2,5.4c0,2.8-1.4,5.3-3.6,6.9c0.6,1.2,1,2.6,1,3.8c0,5-3.6,8.3-9.2,8.4
		C53.7,126.6,48.8,129.8,43.5,129.8z M43.5,1C23.1,1,1.1,15.2,1.1,38.2c0,8.6,2.8,15.9,8.5,22.2c7,7.7,13.5,16,14.1,24.5l0,0.2
		l-0.2,0.1c-2.3,1.3-3.7,3.9-3.7,6.6c0,1.9,0.7,3.7,2,5.1l0.2,0.3l-0.2,0.3c-1.3,1.4-2,3.2-2,5.1c0,2.6,1.3,5,3.6,6.5l0.3,0.2
		l-0.2,0.3c-0.7,1.2-1,2.5-1,3.8c0,5.7,4.7,7.7,8.7,7.7h0.2l0.1,0.2c2.1,4.8,6.8,7.8,11.9,7.8s9.8-3.1,11.9-7.8l0.1-0.2h0.2
		c4,0,8.7-2,8.7-7.7c0-1.2-0.4-2.6-1-3.8l-0.2-0.3l0.3-0.2c2.2-1.4,3.6-3.9,3.6-6.5c0-1.9-0.7-3.7-2-5.1l-0.2-0.3l0.2-0.3
		c1.3-1.4,2-3.2,2-5.1c0-2.6-1.5-5.2-3.7-6.6l-0.2-0.1l0-0.2c0.6-8.5,7.2-16.8,14.1-24.5c5.7-6.3,8.5-13.6,8.5-22.2
		C85.8,15.2,63.8,1,43.5,1z M67.1,30.4c-1.6,0-3-1.4-3-3.1c0-5.4-8.5-7.7-13-7.7c-1.6,0-3-1.4-3-3.1c0-1.6,1.4-3.1,3-3.1
		c7.9,0,19.1,4.3,19.1,13.8C70.1,29,68.7,30.4,67.1,30.4z M51,14.3c-1.2,0-2.3,1.1-2.3,2.3c0,1.2,1.1,2.3,2.3,2.3
		c4.8,0,13.7,2.5,13.7,8.4c0,1.2,1.1,2.3,2.3,2.3s2.3-1.1,2.3-2.3C69.4,18.4,58.6,14.3,51,14.3z"/>
	
		<rect x="22.8" y="84.8" transform="matrix(1 -9.114205e-003 9.114205e-003 1 -0.7741 0.3972)" class="st0" width="40.8" height="0.8"/>
	<rect x="21.5" y="96.8" class="st0" width="43.9" height="0.8"/>
	<rect x="23.2" y="109" class="st0" width="40.6" height="0.8"/>
	<rect x="31.2" y="121" class="st0" width="24.5" height="0.8"/>
</g>
</svg>
