<?xml version="1.0" encoding="utf-8"?>
<!-- Generator: Adobe Illustrator 20.1.0, SVG Export Plug-In . SVG Version: 6.00 Build 0)  -->
<svg version="1.1" id="Layer_1" xmlns="http://www.w3.org/2000/svg" xmlns:xlink="http://www.w3.org/1999/xlink" x="0px" y="0px"
	 viewBox="0 0 25 30" style="enable-background:new 0 0 25 30;" xml:space="preserve">
<style type="text/css">
	.st0{fill:#010101;}
	.st1{fill:#FFFFFF;}
	.st2{fill:#ED2224;}
</style>
<path class="st0" d="M23.5,30H1.5c-0.8,0-1.5-0.7-1.5-1.5v-27C0.1,0.7,0.8,0,1.5,0h21.9C24.3,0,25,0.7,25,1.5v27
	C24.9,29.3,24.3,30,23.5,30z"/>
<path class="st1" d="M1.6,0.2c-0.7,0-1.3,0.6-1.3,1.3v27c0,0.7,0.6,1.3,1.3,1.3h21.9c0.7,0,1.3-0.6,1.3-1.3v-27
	c0-0.7-0.6-1.3-1.3-1.3C23.5,0.2,1.6,0.2,1.6,0.2z"/>
<g>
	<path class="st0" d="M6.1,22.2c0,0.4-0.2,0.7-0.5,1c-0.3,0.2-0.7,0.4-1.3,0.4c-0.5,0-1-0.1-1.3-0.2v-0.7c0.2,0.1,0.4,0.2,0.7,0.2
		C4,22.9,4.2,23,4.4,23c0.3,0,0.5-0.1,0.7-0.2s0.2-0.3,0.2-0.5S5.2,22,5.1,21.9s-0.4-0.3-0.8-0.4c-0.4-0.2-0.7-0.4-0.9-0.6
		c-0.2-0.2-0.3-0.5-0.3-0.8c0-0.4,0.1-0.7,0.4-0.9c0.3-0.2,0.7-0.3,1.1-0.3c0.5,0,0.9,0.1,1.3,0.3l-0.2,0.6
		c-0.4-0.2-0.8-0.3-1.1-0.3c-0.2,0-0.4,0.1-0.6,0.2c-0.1,0.1-0.2,0.3-0.2,0.4s0,0.2,0.1,0.3C4,20.5,4,20.6,4.2,20.6
		c0.1,0.1,0.3,0.2,0.6,0.3c0.3,0.1,0.6,0.3,0.8,0.4c0.2,0,0.4,0.2,0.4,0.3C6.1,21.8,6.1,22,6.1,22.2z"/>
	<path class="st0" d="M11.5,23.5h-0.8l-0.8-2.8c0-0.1-0.1-0.3-0.1-0.5c-0.1-0.2-0.1-0.4-0.1-0.5c0,0.1-0.1,0.3-0.1,0.5
		s-0.1,0.4-0.1,0.5l-0.8,2.8H7.8l-0.6-2.4l-0.6-2.4h0.8L8,21.5c0.1,0.4,0.2,0.8,0.2,1.2c0-0.2,0.1-0.4,0.1-0.6s0.1-0.4,0.1-0.5
		l0.8-2.8H10l0.8,2.8c0.1,0.3,0.2,0.6,0.2,1.1c0-0.3,0.1-0.7,0.2-1.2l0.7-2.7h0.8L11.5,23.5z"/>
	<path class="st0" d="M13.4,23.5v-4.7h0.8v4.7H13.4z"/>
	<path class="st0" d="M18.2,22.2c0,0.4-0.2,0.7-0.5,1c-0.3,0.2-0.7,0.4-1.3,0.4c-0.5,0-1-0.1-1.3-0.2v-0.7c0.2,0.1,0.4,0.2,0.7,0.2
		C16,23,16.3,23,16.5,23c0.3,0,0.5-0.1,0.7-0.2c0.1-0.1,0.2-0.3,0.2-0.5s-0.1-0.3-0.2-0.4s-0.4-0.3-0.8-0.4
		c-0.4-0.2-0.7-0.4-0.9-0.6s-0.3-0.5-0.3-0.8c0-0.4,0.1-0.7,0.4-0.9c0.3-0.2,0.7-0.3,1.1-0.3c0.5,0,0.9,0.1,1.3,0.3l-0.2,0.6
		c-0.4-0.2-0.8-0.3-1.1-0.3c-0.2,0-0.4,0.1-0.6,0.2c-0.1,0.1-0.2,0.3-0.2,0.4s0,0.2,0.1,0.3c0.1,0.1,0.1,0.2,0.3,0.2
		c0.1,0.1,0.3,0.2,0.6,0.3c0.3,0.1,0.6,0.3,0.8,0.4c0.2,0.1,0.3,0.3,0.4,0.4C18.2,21.8,18.2,22,18.2,22.2z"/>
	<path class="st0" d="M22,22.2c0,0.4-0.2,0.7-0.5,1s-0.7,0.4-1.3,0.4c-0.5,0-1-0.1-1.3-0.2v-0.7c0.2,0.1,0.4,0.2,0.7,0.2
		c0.2,0.1,0.5,0.1,0.7,0.1c0.3,0,0.5-0.1,0.7-0.2c0.1-0.1,0.2-0.3,0.2-0.5S21.1,22,21,21.9s-0.4-0.3-0.8-0.4
		c-0.4-0.2-0.7-0.4-0.9-0.6c-0.2-0.2-0.3-0.5-0.3-0.8c0-0.4,0.1-0.7,0.4-0.9c0.3-0.2,0.7-0.3,1.1-0.3c0.5,0,0.9,0.1,1.3,0.3
		l-0.2,0.6c-0.4-0.2-0.8-0.3-1.1-0.3c-0.2,0-0.4,0.1-0.6,0.2c-0.1,0.1-0.2,0.3-0.2,0.4s0,0.2,0.1,0.3c0.1,0.1,0.1,0.2,0.3,0.2
		c0.1,0.1,0.3,0.2,0.6,0.3c0.3,0.1,0.6,0.3,0.8,0.4c0.2,0.1,0.3,0.3,0.4,0.4C21.9,21.8,22,22,22,22.2z"/>
</g>
<g>
	<path class="st0" d="M4.6,28l-1.2-3l0,0c0,0.2,0,0.5,0,0.9V28H3.1v-3.4h0.6l1.1,2.8l0,0l1.1-2.8h0.6V28H6.1v-2.2c0-0.3,0-0.5,0-0.8
		l0,0l-1.2,3H4.6z"/>
	<path class="st0" d="M11.6,28l-0.4-1.1H9.8L9.3,28H8.9l1.4-3.4h0.3l1.3,3.4H11.6z M11,26.6l-0.4-1.1c-0.1-0.1-0.1-0.3-0.2-0.5
		c0,0.2-0.1,0.3-0.1,0.5l-0.4,1.1H11z"/>
	<path class="st0" d="M17.2,26.3c0,0.6-0.2,1-0.5,1.3S15.9,28,15.4,28h-1v-3.4h1.1c0.5,0,0.9,0.1,1.2,0.4S17.2,25.7,17.2,26.3z
		 M16.8,26.3c0-0.4-0.1-0.8-0.3-1c-0.2-0.2-0.6-0.3-1-0.3h-0.6v2.7h0.5c0.5,0,0.8-0.1,1.1-0.4C16.6,27.1,16.8,26.8,16.8,26.3z"/>
	<path class="st0" d="M21.9,28H20v-3.4h1.9V25h-1.5v1.1h1.4v0.4h-1.4v1.3h1.5V28z"/>
</g>
<rect x="3" y="2.3" class="st2" width="18.9" height="15"/>
<g>
	<polygon class="st1" points="18.5,7.9 14.5,7.9 14.5,3.8 10.5,3.8 10.5,7.9 6.5,7.9 6.5,11.9 10.5,11.9 10.5,15.9 14.5,15.9 
		14.5,11.9 18.5,11.9 	"/>
	<path class="st0" d="M14.5,15.9h-4v-4h-4v-4h4v-4h4v4h4v4h-4V15.9z M10.5,15.9h4v-4h4v-4h-4v-4h-4v4h-4v4h4V15.9z"/>
</g>
</svg>
