<?xml version="1.0" encoding="utf-8"?>
<!-- Generator: Adobe Illustrator 20.1.0, SVG Export Plug-In . SVG Version: 6.00 Build 0)  -->
<svg version="1.1" id="Layer_1" xmlns="http://www.w3.org/2000/svg" xmlns:xlink="http://www.w3.org/1999/xlink" x="0px" y="0px"
	 viewBox="0 0 100 30" style="enable-background:new 0 0 100 30;" xml:space="preserve">
<style type="text/css">
	.st0{fill:#C12026;}
	.st1{fill:#FFFFFF;}
</style>
<path d="M56.9,11.5c0,1.1-0.4,2-1.2,2.7c-0.8,0.6-2,1-3.4,1c-1.4,0-2.6-0.2-3.6-0.7v-2c0.6,0.3,1.2,0.5,1.9,0.6
	c0.7,0.2,1.3,0.2,1.8,0.2c0.8,0,1.4-0.2,1.8-0.5c0.4-0.3,0.6-0.7,0.6-1.3c0-0.5-0.2-0.9-0.5-1.2c-0.4-0.3-1.1-0.7-2.2-1.2
	c-1.2-0.5-2-1-2.5-1.6C49,7,48.8,6.2,48.8,5.4c0-1.1,0.4-1.9,1.1-2.5c0.8-0.6,1.8-0.9,3.1-0.9c1.2,0,2.4,0.3,3.7,0.8L56,4.5
	c-1.1-0.5-2.2-0.7-3.1-0.7c-0.7,0-1.2,0.1-1.5,0.4c-0.4,0.3-0.5,0.7-0.5,1.2c0,0.3,0.1,0.6,0.2,0.9c0.1,0.2,0.4,0.5,0.7,0.7
	c0.3,0.2,0.9,0.5,1.7,0.8c0.9,0.4,1.6,0.8,2.1,1.1c0.4,0.3,0.8,0.7,1,1.1C56.8,10.4,56.9,10.9,56.9,11.5z M71.3,14.9h-2.3l-2.2-7.6
	c-0.1-0.3-0.2-0.8-0.4-1.4c-0.1-0.6-0.2-1.1-0.3-1.3C66.2,4.9,66.1,5.4,66,6c-0.1,0.6-0.2,1-0.3,1.3l-2.1,7.6h-2.3l-1.7-6.4
	l-1.7-6.4h2.1l1.8,7.5c0.3,1.2,0.5,2.3,0.6,3.2c0.1-0.5,0.2-1.1,0.3-1.7c0.1-0.6,0.2-1.1,0.4-1.5l2.1-7.5h2.1l2.1,7.5
	c0.2,0.7,0.4,1.7,0.6,3.1c0.1-0.8,0.3-1.9,0.6-3.2l1.8-7.5h2.1L71.3,14.9z M76.7,14.9V2.1h2.1v12.8H76.7z M89.7,11.5
	c0,1.1-0.4,2-1.2,2.7c-0.8,0.6-2,1-3.4,1c-1.4,0-2.6-0.2-3.6-0.7v-2c0.6,0.3,1.2,0.5,1.9,0.6c0.7,0.2,1.3,0.2,1.8,0.2
	c0.8,0,1.4-0.2,1.8-0.5s0.6-0.7,0.6-1.3c0-0.5-0.2-0.9-0.5-1.2c-0.4-0.3-1.1-0.7-2.2-1.2c-1.2-0.5-2-1-2.5-1.6
	c-0.5-0.6-0.7-1.3-0.7-2.2c0-1.1,0.4-1.9,1.1-2.5c0.8-0.6,1.8-0.9,3.1-0.9c1.2,0,2.4,0.3,3.7,0.8l-0.7,1.7c-1.1-0.5-2.2-0.7-3.1-0.7
	c-0.7,0-1.2,0.1-1.5,0.4c-0.4,0.3-0.5,0.7-0.5,1.2c0,0.3,0.1,0.6,0.2,0.9c0.1,0.2,0.4,0.5,0.7,0.7c0.3,0.2,0.9,0.5,1.7,0.8
	c0.9,0.4,1.6,0.8,2.1,1.1c0.4,0.3,0.8,0.7,1,1.1C89.6,10.4,89.7,10.9,89.7,11.5z M99.8,11.5c0,1.1-0.4,2-1.2,2.7c-0.8,0.6-2,1-3.4,1
	c-1.4,0-2.6-0.2-3.6-0.7v-2c0.6,0.3,1.2,0.5,1.9,0.6c0.7,0.2,1.3,0.2,1.8,0.2c0.8,0,1.4-0.2,1.8-0.5c0.4-0.3,0.6-0.7,0.6-1.3
	c0-0.5-0.2-0.9-0.5-1.2c-0.4-0.3-1.1-0.7-2.2-1.2c-1.2-0.5-2-1-2.5-1.6C92,7,91.7,6.2,91.7,5.4c0-1.1,0.4-1.9,1.1-2.5
	c0.8-0.6,1.8-0.9,3.1-0.9c1.2,0,2.4,0.3,3.7,0.8l-0.7,1.7c-1.1-0.5-2.2-0.7-3.1-0.7c-0.7,0-1.2,0.1-1.5,0.4
	c-0.4,0.3-0.5,0.7-0.5,1.2c0,0.3,0.1,0.6,0.2,0.9c0.1,0.2,0.4,0.5,0.7,0.7c0.3,0.2,0.9,0.5,1.7,0.8c0.9,0.4,1.6,0.8,2.1,1.1
	c0.4,0.3,0.8,0.7,1,1.1C99.7,10.4,99.8,10.9,99.8,11.5z"/>
<path d="M55.6,29.7h-1.1v-4.4h-4.9v4.4h-1.1v-9.3h1.1v4h4.9v-4h1.1V29.7z M65.6,25.1c0,1.5-0.4,2.7-1.1,3.5
	c-0.8,0.9-1.8,1.3-3.1,1.3c-1.4,0-2.4-0.4-3.2-1.3c-0.7-0.8-1.1-2-1.1-3.6c0-1.5,0.4-2.7,1.1-3.5c0.7-0.8,1.8-1.3,3.2-1.3
	c1.3,0,2.4,0.4,3.1,1.3C65.2,22.4,65.6,23.6,65.6,25.1z M58.2,25.1c0,1.3,0.3,2.2,0.8,2.9c0.5,0.7,1.3,1,2.3,1c1,0,1.8-0.3,2.3-1
	c0.5-0.7,0.8-1.6,0.8-2.9c0-1.3-0.3-2.2-0.8-2.9c-0.5-0.6-1.3-1-2.3-1c-1,0-1.8,0.3-2.4,1C58.5,22.9,58.2,23.8,58.2,25.1z
	 M72.4,27.3c0,0.8-0.3,1.5-0.9,1.9c-0.6,0.5-1.4,0.7-2.4,0.7c-1.1,0-2-0.1-2.6-0.4v-1c0.4,0.2,0.8,0.3,1.2,0.4
	c0.5,0.1,0.9,0.1,1.3,0.1c0.7,0,1.3-0.1,1.6-0.4c0.4-0.3,0.5-0.7,0.5-1.1c0-0.3-0.1-0.6-0.2-0.8c-0.1-0.2-0.3-0.4-0.7-0.6
	c-0.3-0.2-0.8-0.4-1.4-0.6c-0.9-0.3-1.5-0.7-1.9-1.1c-0.4-0.4-0.6-1-0.6-1.7c0-0.7,0.3-1.3,0.8-1.7c0.5-0.4,1.3-0.6,2.1-0.6
	c0.9,0,1.8,0.2,2.6,0.5l-0.3,0.9c-0.8-0.3-1.5-0.5-2.2-0.5c-0.6,0-1,0.1-1.3,0.4c-0.3,0.2-0.5,0.6-0.5,1c0,0.3,0.1,0.6,0.2,0.8
	c0.1,0.2,0.3,0.4,0.6,0.6c0.3,0.2,0.7,0.4,1.3,0.6c1,0.3,1.7,0.7,2,1.1C72.2,26.1,72.4,26.6,72.4,27.3z M76.6,29.7h-1.1v-8.4h-3v-1
	h7v1h-3V29.7z M80.3,29.7v-9.3h1.1v9.3H80.3z M90.7,29.7h-1.2l-5.1-7.8h-0.1c0.1,0.9,0.1,1.8,0.1,2.5v5.3h-1v-9.3h1.2l5.1,7.8h0.1
	c0-0.1,0-0.5-0.1-1.1c0-0.6,0-1.1,0-1.3v-5.3h1V29.7z M96.7,24.9h3.2v4.5c-0.5,0.2-1,0.3-1.5,0.4c-0.5,0.1-1.1,0.1-1.8,0.1
	c-1.4,0-2.5-0.4-3.3-1.3c-0.8-0.8-1.2-2-1.2-3.5c0-1,0.2-1.8,0.6-2.5c0.4-0.7,0.9-1.3,1.7-1.7c0.7-0.4,1.6-0.6,2.6-0.6
	c1,0,1.9,0.2,2.8,0.5l-0.4,1c-0.8-0.4-1.7-0.5-2.4-0.5c-1.1,0-2,0.3-2.7,1c-0.6,0.7-1,1.6-1,2.8c0,1.3,0.3,2.2,0.9,2.9
	c0.6,0.7,1.5,1,2.7,1c0.6,0,1.3-0.1,1.9-0.2v-2.9h-2.1V24.9z"/>
<g>
	<g>
		<polygon class="st0" points="20.6,0 41,30 0.2,30 		"/>
		<g>
			<rect x="18.1" y="5.7" class="st1" width="1.2" height="4.1"/>
			
				<rect x="18.1" y="5.7" transform="matrix(4.420737e-11 -1 1 4.420737e-11 11.0086 26.4186)" class="st1" width="1.2" height="4.1"/>
		</g>
	</g>
	<g>
		<polygon class="st0" points="30.7,9.3 44.9,30 16.6,30 		"/>
		<g>
			<rect x="29" y="13.2" class="st1" width="0.9" height="2.8"/>
			
				<rect x="29" y="13.2" transform="matrix(4.682216e-11 -1 1 4.682216e-11 14.8582 43.9912)" class="st1" width="0.9" height="2.8"/>
		</g>
	</g>
</g>
</svg>
