<?xml version="1.0" encoding="utf-8"?>
<!-- Generator: Adobe Illustrator 19.2.1, SVG Export Plug-In . SVG Version: 6.00 Build 0)  -->
<svg version="1.1" id="Layer_1" xmlns="http://www.w3.org/2000/svg" xmlns:xlink="http://www.w3.org/1999/xlink" x="0px" y="0px"
	 viewBox="0 0 110 130" style="enable-background:new 0 0 110 130;" xml:space="preserve">
<style type="text/css">
	.st0{fill:#010101;}
</style>
<g>
	<path class="st0" d="M89.8,129.8H33.4c-6.2,0-11.2-5-11.2-11.1v-26l10.7-11.5c1.8-2,4.5-3.1,7.2-3.1h25c5.3,0,9.5,4.3,9.5,9.8
		c0,5.3-4.7,9.8-10.2,9.8H47.3v1.9h17.2c3.6,0,7.1-1.7,9.3-4.6l0.5-0.7l0.1,0.9c0.9,5.6,5.9,9.8,11.6,9.8c4.6,0,8.8-2.7,10.7-6.8
		l12.6-27.6v9.4c0,4.6-0.5,9-1.6,13.1l-7.2,28.5C99.4,126.4,94.9,129.8,89.8,129.8z M22.9,93v25.7c0,5.7,4.7,10.4,10.4,10.4h56.4
		c4.8,0,9-3.2,10.1-7.9l7.2-28.5c1.1-4,1.6-8.4,1.6-12.9v-5.9L97.5,98.4c-2,4.4-6.5,7.3-11.4,7.3c-5.8,0-10.9-4.1-12.2-9.7
		c-2.4,2.7-5.9,4.3-9.4,4.3H46.5v-3.4h17.9c5.1,0,9.4-4.1,9.4-9c0-5.1-3.8-9-8.7-9h-25c-2.5,0-5,1.1-6.6,2.9L22.9,93z M86.1,103
		c-5.4,0-9.8-4.4-9.8-9.8c0-1.5,0.3-2.9,0.9-4l11.4-25c2.2-4.8,4.4-9.7,10.8-9.7c5.9,0,10,4.1,10,9.9c0,1-0.3,2.4-0.8,3.4L95,97.2
		C93.4,100.7,89.9,103,86.1,103z M99.3,55.2c-5.9,0-7.9,4.5-10.1,9.3L89,65.2L77.8,89.5c-0.5,1.1-0.8,2.3-0.8,3.7c0,5,4.1,9,9.1,9
		c3.6,0,6.8-2.1,8.3-5.3l13.5-29.5c0.4-0.8,0.7-2.1,0.7-3C108.6,59,104.8,55.2,99.3,55.2z M22.2,89.9v-6.7L1.3,28.7
		c-0.5-1.4-0.7-2.7-0.7-4c0-6.1,5-11.1,11.2-11.1c4.6,0,8.8,2.9,10.5,7.1L39,64.6h4.8V11.3c0-6.1,5-11.1,11.2-11.1
		c6.2,0,11.2,5,11.2,11.1v45l-9.1,19.9h-17c-3.3,0-6.5,1.4-8.7,3.7L22.2,89.9z M11.7,14.3C6,14.3,1.3,19,1.3,24.7
		c0,1.2,0.2,2.4,0.7,3.7l21,54.6V88l8-8.6c2.4-2.5,5.7-4,9.2-4h16.5l8.8-19.3V11.3c0-5.7-4.7-10.4-10.4-10.4
		c-5.8,0-10.4,4.7-10.4,10.4v54.1h-6L21.5,21C20,17,16.1,14.3,11.7,14.3z M76.1,86.3l-0.2-1.1c-1.1-5.3-6-9.1-11.5-9.1h-5.2
		l12.5-27.2c1.6-3.5,5.1-5.8,9-5.8c5.4,0,9.8,4.4,9.8,9.8c0,1.5-0.3,2.9-0.9,4L76.1,86.3z M60.4,75.4h4.1c5.5,0,10.3,3.6,11.9,8.7
		l12.6-27.4c0.5-1.1,0.8-2.3,0.8-3.7c0-5-4.1-9-9.1-9c-3.6,0-6.8,2.1-8.3,5.3L60.4,75.4z"/>
</g>
</svg>
