<?xml version="1.0" encoding="utf-8"?>
<!-- Generator: Adobe Illustrator 19.2.1, SVG Export Plug-In . SVG Version: 6.00 Build 0)  -->
<svg version="1.1" id="Layer_1" xmlns="http://www.w3.org/2000/svg" xmlns:xlink="http://www.w3.org/1999/xlink" x="0px" y="0px"
	 viewBox="0 0 130 130" style="enable-background:new 0 0 130 130;" xml:space="preserve">
<style type="text/css">
	.st0{fill:#010101;}
</style>
<g>
	<path class="st0" d="M129.7,130H0.3v-28.3h129.3V130z M1.1,129.3h127.8v-26.8H1.1V129.3z M115.5,123.1c-4,0-7.3-3.3-7.3-7.3
		c0-4,3.3-7.3,7.3-7.3c4,0,7.3,3.3,7.3,7.3C122.8,119.9,119.5,123.1,115.5,123.1z M115.5,109.3c-3.6,0-6.5,2.9-6.5,6.5
		c0,3.6,2.9,6.5,6.5,6.5s6.5-2.9,6.5-6.5C122,112.3,119.1,109.3,115.5,109.3z M83.7,120.8H9.5v-9.9h74.2V120.8z M10.3,120.1H83v-8.4
		H10.3V120.1z M129.7,93.3H0.3V65h129.3V93.3z M1.1,92.5h127.8V65.7H1.1V92.5z M115.5,86.4c-4,0-7.3-3.3-7.3-7.3s3.3-7.3,7.3-7.3
		c4,0,7.3,3.3,7.3,7.3S119.5,86.4,115.5,86.4z M115.5,72.6c-3.6,0-6.5,2.9-6.5,6.5c0,3.6,2.9,6.5,6.5,6.5s6.5-2.9,6.5-6.5
		C122,75.5,119.1,72.6,115.5,72.6z M83.7,84.1H9.5v-9.9h74.2V84.1z M10.3,83.3H83v-8.4H10.3V83.3z M129.7,56.6H0.3V28.3h129.3V56.6z
		 M1.1,55.8h127.8V29H1.1V55.8z M115.5,49.7c-4,0-7.3-3.3-7.3-7.3c0-4,3.3-7.3,7.3-7.3c4,0,7.3,3.3,7.3,7.3
		C122.8,46.4,119.5,49.7,115.5,49.7z M115.5,35.9c-3.6,0-6.5,2.9-6.5,6.5c0,3.6,2.9,6.5,6.5,6.5s6.5-2.9,6.5-6.5
		C122,38.8,119.1,35.9,115.5,35.9z M83.7,47.4H9.5v-9.9h74.2V47.4z M10.3,46.6H83v-8.4H10.3V46.6z"/>
</g>
</svg>
