<?xml version="1.0" encoding="utf-8"?>
<!-- Generator: Adobe Illustrator 19.2.1, SVG Export Plug-In . SVG Version: 6.00 Build 0)  -->
<svg version="1.1" id="Layer_1" xmlns="http://www.w3.org/2000/svg" xmlns:xlink="http://www.w3.org/1999/xlink" x="0px" y="0px"
	 viewBox="0 0 165.3 130" style="enable-background:new 0 0 165.3 130;" xml:space="preserve">
<style type="text/css">
	.st0{fill:#010101;}
</style>
<g>
	<path class="st0" d="M81.7,130c-15.9,0-31.5-6.2-43.5-18.2c-11.2-11.2-17.6-26.1-18.1-42.1l-14.4,0c-1.5,0-2.9-0.6-3.9-1.6
		c-1-1-1.6-2.4-1.6-3.9c0-1.5,0.6-2.9,1.6-3.9l25.6-25.6c2.2-2.2,5.7-2.2,7.9,0l25.6,25.6c1,1,1.6,2.4,1.6,3.9
		c0,1.5-0.6,2.9-1.6,3.9c-1,1-2.4,1.6-3.9,1.6c0,0,0,0,0,0l-15.3,0c0.4,10.3,4.7,19.9,11.9,27.2c10.2,10.2,24.6,14.3,38.6,10.9
		c2.6-0.6,4.8-1.6,7.1-2.6c0.8-0.4,1.7-0.7,2.5-1.1c1.3-0.6,2.5-0.4,3.4,0.5l11,11c1.2,1.2,1.2,3,0,4.2c-0.2,0.2-0.4,0.4-0.6,0.4
		C105,126.8,93.2,130,81.7,130z M31.4,33.7c-1.2,0-2.5,0.5-3.4,1.4L2.4,60.7C1.5,61.6,1,62.8,1,64.1c0,1.3,0.5,2.5,1.4,3.4
		c0.9,0.9,2.1,1.4,3.4,1.4l15.1,0l0,0.4c0.4,15.7,6.9,31,17.9,42c20.5,20.5,51.3,23.8,76.6,8.3c0.1-0.1,0.2-0.1,0.4-0.3l0,0
		c0.8-0.8,0.8-2.3,0-3.1l-11-11c-0.9-0.9-1.9-0.7-2.6-0.3c-0.9,0.4-1.7,0.7-2.5,1.1c-2.4,1-4.6,2-7.3,2.6
		c-14.2,3.4-28.9-0.7-39.3-11.1C45.6,89.9,41.3,79.9,41,69.3l0-0.4l16.1,0c0,0,0,0,0,0c1.3,0,2.5-0.5,3.4-1.4
		c0.9-0.9,1.4-2.1,1.4-3.4c0-1.3-0.5-2.5-1.4-3.4L34.8,35.1C33.8,34.2,32.6,33.7,31.4,33.7z M133.9,102.7c-1.4,0-2.8-0.5-3.9-1.6
		l-25.6-25.6c-1-1-1.6-2.4-1.6-3.9c0-1.5,0.6-2.9,1.6-3.9c1-1,2.4-1.6,3.9-1.6l15.4,0c-0.5-10.3-4.8-19.9-12-27.2
		c-10.2-10.2-24.6-14.3-38.6-10.9c-2.6,0.6-4.8,1.6-7.1,2.6c-0.8,0.4-1.7,0.7-2.6,1.1c-1.3,0.6-2.5,0.4-3.4-0.5L48.6,19.7
		c-0.6-0.6-0.9-1.3-0.9-2.1c0-0.8,0.3-1.5,0.9-2.1l0.4-0.4c25.8-15.7,57-12.3,77.8,8.6c11.1,11.1,17.7,26.4,18.2,42.3l14.5,0.1
		c1.5,0,2.9,0.6,3.9,1.6c2.2,2.2,2.2,5.7,0,7.9v0l-25.6,25.6C136.8,102.1,135.3,102.7,133.9,102.7z M108.3,66.7
		c-1.3,0-2.5,0.5-3.4,1.4c-0.9,0.9-1.4,2.1-1.4,3.4c0,1.3,0.5,2.5,1.4,3.4l25.6,25.6c1.9,1.9,4.9,1.9,6.8,0l25.6-25.6v0
		c1.8-1.8,1.8-5,0-6.8c-0.9-0.9-2.1-1.4-3.4-1.4l-15.2-0.1l0-0.4c-0.5-15.8-7-31.1-18-42.1c-20.6-20.6-51.4-24-76.8-8.5L49.1,16
		c-0.4,0.4-0.6,1-0.6,1.5c0,0.6,0.2,1.2,0.6,1.6l11.4,11.4c0.9,0.9,1.9,0.7,2.6,0.3c0.9-0.4,1.7-0.7,2.6-1.1c2.3-1,4.6-2,7.2-2.6
		c14.2-3.4,28.9,0.7,39.3,11.1c7.5,7.5,11.8,17.5,12.2,28.1l0,0.4L108.3,66.7z"/>
</g>
</svg>
