<?xml version="1.0" encoding="utf-8"?>
<!-- Generator: Adobe Illustrator 19.2.1, SVG Export Plug-In . SVG Version: 6.00 Build 0)  -->
<svg version="1.1" id="Layer_1" xmlns="http://www.w3.org/2000/svg" xmlns:xlink="http://www.w3.org/1999/xlink" x="0px" y="0px"
	 viewBox="0 0 140.5 130" style="enable-background:new 0 0 140.5 130;" xml:space="preserve">
<style type="text/css">
	.st0{fill:#010101;}
</style>
<g>
	<path class="st0" d="M121.5,129.8c-0.4,0-1-0.3-3.6-3.6c-1.8-2.2-3-3.8-3.7-4.8c-0.9,0.1-1.5,0.1-2,0.1c-0.5,0-1.1,0-2-0.1
		c-0.7,1-1.9,2.6-3.7,4.8c-2.7,3.3-3.3,3.6-3.6,3.6c-0.2,0-0.2,0-9.2-5.2c-0.4-0.3-0.5-0.6-0.5-0.8c0-1.3,1.2-4.6,3.7-10.1
		c-0.8-1.1-1.5-2.3-2-3.5c-10.1-1-11-1.9-11-2.6V97.3c0-0.6,0-1.5,11-2.6c0.6-1.3,1.3-2.5,2-3.5c-2.5-5.5-3.7-8.8-3.7-10.1
		c0-0.2,0.1-0.5,0.4-0.8c0.2-0.1,0.7-0.4,2.6-1.5c1.5-0.9,2.9-1.7,4.3-2.5c2.1-1.2,2.2-1.2,2.4-1.2c0.4,0,1,0.3,3.6,3.5
		c1.7,2.1,3,3.7,3.7,4.8c0.9-0.1,1.5-0.1,2-0.1c0.5,0,1.1,0,2,0.1c2.4-3.4,4.7-6.1,6.6-8.1l0.1-0.1l0.6-0.2c0.2,0,0.4,0,9.2,5.2
		c0.4,0.3,0.5,0.6,0.5,0.8c0,1.3-1.2,4.6-3.7,10.1c0.8,1,1.4,2.2,2,3.5c11,1.1,11,2.1,11,2.6v10.2c0,0.7-0.9,1.6-11,2.6
		c-0.5,1.2-1.2,2.4-2,3.5c2.5,5.5,3.7,8.8,3.7,10.1c0,0.2-0.1,0.5-0.4,0.8C121.7,129.8,121.7,129.8,121.5,129.8z M102.9,75.9
		c-0.2,0.1-0.6,0.3-2,1.1c-1.4,0.8-2.8,1.6-4.3,2.5c-1.5,0.9-2.4,1.4-2.6,1.5c-0.1,0.1-0.1,0.1-0.1,0.2c0,0.8,0.6,3.2,3.7,9.9
		l0.1,0.2l-0.1,0.2c-0.8,1.1-1.5,2.4-2.1,3.7l-0.1,0.2l-0.2,0c-9.3,0.9-10.4,1.7-10.5,1.9l0,10.2c0.1,0.2,1.2,1,10.5,1.9l0.2,0
		l0.1,0.2c0.6,1.3,1.3,2.5,2.1,3.7l0.1,0.2l-0.1,0.2c-3,6.8-3.7,9.1-3.7,9.9c0,0,0,0.1,0.1,0.2c6.4,3.8,8.4,4.9,8.8,5.1
		c0.2-0.1,0.9-0.6,3-3.3c1.9-2.3,3.1-3.9,3.8-4.9l0.1-0.2l0.2,0c1,0.1,1.7,0.1,2.1,0.1c0.5,0,1.2,0,2.1-0.1l0.2,0l0.1,0.2
		c0.7,1,1.9,2.7,3.8,4.9c2.1,2.6,2.8,3.2,3,3.3c0.4-0.2,2.4-1.4,8.9-5.1c0.1-0.1,0.1-0.2,0.1-0.2c0-1.2-1.2-4.5-3.7-9.9l-0.1-0.2
		l0.1-0.2c0.9-1.2,1.6-2.5,2.1-3.7l0.1-0.2l0.2,0c9.3-0.9,10.4-1.7,10.5-1.9l0-10.2c-0.1-0.2-1.2-1-10.5-1.9l-0.2,0l-0.1-0.2
		c-0.6-1.4-1.3-2.6-2.1-3.7l-0.1-0.2l0.1-0.2c2.4-5.4,3.7-8.8,3.7-9.9c0,0,0-0.1-0.1-0.2c-6.4-3.7-8.4-4.8-8.8-5l-0.2,0.1
		c-1.9,2-4.2,4.7-6.6,8.1l-0.1,0.2l-0.2,0c-1-0.1-1.7-0.1-2.1-0.1c-0.5,0-1.2,0-2.1,0.1l-0.2,0l-0.1-0.2c-0.7-1-1.9-2.7-3.8-4.9
		C103.8,76.5,103.1,76,102.9,75.9z M112.2,112.2c-2.7,0-5-1-6.9-2.9c-1.9-1.9-2.8-4.2-2.8-6.9c0-2.6,1-4.9,2.9-6.8
		c1.9-1.9,4.2-2.9,6.8-2.9c2.6,0,4.9,1,6.8,2.9c1.9,1.9,2.9,4.2,2.9,6.8c0,2.7-1,5-2.8,6.9l0,0C117.2,111.2,114.8,112.2,112.2,112.2
		z M112.2,93.4c-2.4,0-4.5,0.9-6.3,2.7c-1.8,1.8-2.7,3.9-2.7,6.3c0,2.5,0.9,4.6,2.6,6.4c1.7,1.7,3.9,2.6,6.3,2.6s4.6-0.9,6.3-2.6
		l0,0c1.7-1.7,2.6-3.9,2.6-6.4c0-2.4-0.9-4.5-2.7-6.3C116.7,94.3,114.6,93.4,112.2,93.4z M53.7,112.2H40.2c-0.6,0-1.2-0.2-1.7-0.6
		c-0.5-0.4-0.8-0.9-0.9-1.5L36,99.1c-1.5-0.5-3.3-1.2-5.1-2.1l-8.4,6.4c-0.4,0.4-1,0.6-1.7,0.6c-0.6,0-1.2-0.2-1.8-0.7
		c-9.5-8.8-10.6-11.1-10.6-12c0-0.5,0.2-1.1,0.6-1.6c0.5-0.7,1.5-2,3-3.9c1.4-1.8,2.5-3.2,3.3-4.3c-1-2-1.8-3.9-2.4-5.6L2.1,74.1
		c-0.6-0.1-1.1-0.3-1.5-0.8c-0.4-0.5-0.6-1-0.6-1.7V58.1c0-0.6,0.2-1.1,0.6-1.7C1,55.9,1.5,55.6,2,55.5l11-1.7
		c0.5-1.6,1.2-3.3,2.2-5.2c-1.6-2.3-3.8-5.1-6.4-8.2c-0.4-0.6-0.6-1.2-0.6-1.7c0-0.7,0.2-1.2,0.6-1.7c1.1-1.4,3.1-3.7,6-6.5
		c4-4,5.4-4.4,6-4.4c0.6,0,1.2,0.2,1.7,0.6l8.2,6.4c1.5-0.8,3.3-1.5,5.2-2.2c0.5-5.1,1.1-8.9,1.7-11.1c0.4-1.3,1.3-2,2.5-2h13.5
		c0.6,0,1.2,0.2,1.7,0.6c0.5,0.4,0.8,0.9,0.9,1.5l1.6,10.9c1.5,0.5,3.3,1.2,5.1,2.1l8.4-6.4c0.8-0.7,2.3-0.8,3.4,0.1
		c9.5,8.8,10.6,11.1,10.6,12c0,0.5-0.2,1.1-0.6,1.6c-0.6,0.8-1.6,2.1-3.1,4c-1.4,1.7-2.4,3.1-3.1,4.2c1,2.2,1.8,4.1,2.3,5.6
		l10.8,1.6c0.6,0.1,1.1,0.4,1.5,0.9l0,0c0.4,0.5,0.6,1,0.6,1.7v13.5c0,0.6-0.2,1.1-0.6,1.6c-0.4,0.6-0.9,0.9-1.4,0.9l-11,1.7
		c-0.5,1.6-1.2,3.3-2.2,5.2c1.6,2.3,3.8,5,6.4,8.2c0.4,0.6,0.6,1.1,0.6,1.7c0,0.7-0.2,1.2-0.6,1.7c-1.1,1.4-3.1,3.7-6,6.5
		c-4,4-5.3,4.5-6,4.5c-0.6,0-1.2-0.2-1.7-0.6l-8.2-6.4c-1.7,0.8-3.4,1.6-5.2,2.1c-0.5,5.1-1.1,8.9-1.7,11.1
		C55.9,111.5,55,112.2,53.7,112.2z M30.8,96.1l0.2,0.1c2,1,3.8,1.8,5.4,2.2l0.2,0.1l1.7,11.4c0,0.4,0.2,0.7,0.6,1.1
		c0.4,0.3,0.8,0.5,1.2,0.5h13.5c0.9,0,1.5-0.5,1.8-1.5c0.6-2.2,1.1-6,1.7-11.3l0-0.2l0.2-0.1c1.9-0.6,3.8-1.3,5.5-2.2l0.2-0.1
		l8.6,6.7c0.4,0.3,0.8,0.4,1.3,0.4c0.5,0,1.8-0.6,5.4-4.2c2.9-2.9,4.9-5.1,6-6.5c0.3-0.3,0.4-0.7,0.4-1.2c0-0.4-0.1-0.8-0.4-1.3
		c-2.7-3.2-4.9-6.1-6.5-8.4l-0.1-0.2l0.1-0.2c1-2,1.8-3.8,2.3-5.5l0.1-0.2l11.5-1.8c0.3,0,0.6-0.2,0.9-0.6c0.3-0.4,0.4-0.8,0.4-1.2
		V58.3c0-0.5-0.1-0.8-0.4-1.2l0,0c-0.3-0.3-0.6-0.6-1-0.6l-11.3-1.7l-0.1-0.2c-0.5-1.6-1.4-3.6-2.5-6l-0.1-0.2l0.1-0.2
		c0.7-1.1,1.8-2.6,3.3-4.4c1.5-1.9,2.5-3.2,3.1-3.9c0.3-0.4,0.4-0.8,0.4-1.2c0-0.7-1.3-3.1-10.4-11.4c-0.8-0.7-1.9-0.6-2.5-0.1
		l-8.8,6.7l-0.2-0.1c-2-1-3.8-1.8-5.4-2.2l-0.2-0.1L55.5,20c0-0.4-0.2-0.7-0.6-1c-0.4-0.3-0.8-0.5-1.2-0.5H40.2
		c-1,0-1.5,0.5-1.8,1.5c-0.6,2.2-1.1,6-1.7,11.2l0,0.2l-0.2,0.1c-2.1,0.7-3.9,1.5-5.5,2.3l-0.2,0.1l-8.6-6.7
		c-0.4-0.3-0.8-0.4-1.3-0.4S19,27.3,15.3,31c-2.9,2.9-4.9,5-5.9,6.5C9.1,37.8,9,38.2,9,38.7c0,0.4,0.2,0.8,0.5,1.3
		c2.7,3.2,4.9,6.1,6.5,8.4l0.1,0.2L16,48.7c-1,2-1.8,3.8-2.3,5.5l-0.1,0.2L2.1,56.3c-0.3,0-0.6,0.2-0.9,0.6
		c-0.3,0.4-0.4,0.8-0.4,1.2v13.5c0,0.5,0.1,0.8,0.4,1.2c0.3,0.3,0.6,0.5,1,0.6l11.3,1.8l0.1,0.2c0.6,1.8,1.4,3.8,2.5,5.9l0.1,0.2
		L16,81.7c-0.8,1.1-1.9,2.5-3.4,4.5c-1.5,1.9-2.5,3.2-3,3.9c-0.3,0.4-0.4,0.8-0.4,1.2c0,0.7,1.3,3.1,10.4,11.4
		c0.4,0.3,0.8,0.5,1.3,0.5c0.5,0,0.9-0.1,1.2-0.4L30.8,96.1z M47,84.1c-5.2,0-9.7-1.9-13.4-5.6C29.8,74.8,28,70.2,28,65
		s1.9-9.8,5.6-13.5c3.7-3.7,8.2-5.6,13.4-5.6s9.7,1.9,13.4,5.6C64.1,55.2,66,59.7,66,65c0,5.2-1.9,9.8-5.6,13.5
		C56.7,82.2,52.2,84.1,47,84.1z M47,46.6c-5,0-9.4,1.8-12.9,5.4c-3.5,3.6-5.4,7.9-5.4,13c0,5,1.8,9.4,5.4,13
		c3.5,3.6,7.9,5.4,12.9,5.4s9.4-1.8,12.9-5.4c3.5-3.6,5.4-7.9,5.4-13c0-5-1.8-9.4-5.4-13C56.3,48.4,52,46.6,47,46.6z M121.5,54.9
		c-0.4,0-1-0.3-3.6-3.6c-1.7-2.1-3-3.8-3.7-4.8c-0.9,0.1-1.5,0.1-2,0.1c-0.5,0-1.1,0-2-0.1c-0.7,1-1.9,2.7-3.7,4.8
		c-2.7,3.3-3.3,3.6-3.6,3.6c-0.2,0-0.3,0-9.2-5.2c-0.4-0.3-0.5-0.6-0.5-0.8c0-1.3,1.2-4.6,3.7-10.1c-0.8-1.1-1.5-2.3-2-3.5
		c-10.1-1-11-1.9-11-2.6V22.4c0-0.6,0-1.5,11-2.6c0.6-1.3,1.3-2.5,2-3.5c-2.5-5.5-3.7-8.8-3.7-10.1c0-0.2,0.1-0.5,0.4-0.8
		c0.2-0.1,1.1-0.6,2.6-1.5c1.5-0.9,2.9-1.7,4.3-2.5c2.1-1.2,2.2-1.2,2.4-1.2c0.4,0,1,0.3,3.6,3.5c1.7,2.1,3,3.7,3.7,4.8
		c0.9-0.1,1.5-0.1,2-0.1c0.5,0,1.1,0,2,0.1c2.4-3.4,4.7-6.1,6.6-8.1l0.1-0.1l0.6-0.2c0.2,0,0.4,0,9.2,5.2c0.4,0.3,0.5,0.6,0.5,0.8
		c0,1.3-1.2,4.6-3.7,10.1c0.7,1,1.4,2.2,2,3.5c11,1.1,11,2.1,11,2.6v10.2c0,0.7-0.9,1.6-11,2.6c-0.5,1.2-1.2,2.4-2,3.5
		c2.5,5.5,3.7,8.8,3.7,10.1c0,0.2-0.1,0.5-0.4,0.8C121.8,54.9,121.7,54.9,121.5,54.9z M102.9,1c-0.2,0.1-0.6,0.3-2,1.1
		c-1.4,0.8-2.8,1.6-4.3,2.5C94.5,5.7,94.1,6,94,6c-0.1,0.1-0.1,0.1-0.1,0.2c0,0.8,0.6,3.2,3.7,9.9l0.1,0.2l-0.1,0.2
		c-0.8,1.1-1.5,2.4-2.1,3.7l-0.1,0.2l-0.2,0c-9.3,0.9-10.4,1.7-10.5,1.9l0,10.2c0.1,0.2,1.2,1,10.5,1.9l0.2,0l0.1,0.2
		c0.6,1.3,1.3,2.5,2.1,3.7l0.1,0.2l-0.1,0.2c-3,6.8-3.7,9.1-3.7,9.9c0,0,0,0.1,0.1,0.2c6.7,3.9,8.5,4.9,8.8,5.1
		c0.2-0.1,0.9-0.6,3-3.3c1.8-2.3,3.1-3.9,3.8-4.9l0.1-0.2l0.2,0c1,0.1,1.7,0.1,2.1,0.1c0.5,0,1.2,0,2.1-0.1l0.2,0l0.1,0.2
		c0.7,1,1.9,2.7,3.8,4.9c2.1,2.6,2.8,3.2,3,3.3c0.4-0.2,2.2-1.2,8.9-5.1c0.1-0.1,0.1-0.2,0.1-0.2c0-1.2-1.2-4.5-3.7-9.9l-0.1-0.2
		l0.1-0.2c0.9-1.2,1.6-2.5,2.1-3.7l0.1-0.2l0.2,0c9.3-0.9,10.4-1.7,10.5-1.9l0-10.2c-0.1-0.2-1.2-1-10.5-1.9l-0.2,0l-0.1-0.2
		c-0.6-1.4-1.3-2.6-2.1-3.7l-0.1-0.2l0.1-0.2c2.4-5.4,3.7-8.8,3.7-9.9c0,0,0-0.1-0.1-0.2c-6.4-3.7-8.4-4.8-8.8-5L121.3,1
		c-2,2-4.2,4.7-6.6,8.1l-0.1,0.2l-0.2,0c-1-0.1-1.7-0.1-2.1-0.1c-0.5,0-1.2,0-2.1,0.1l-0.2,0l-0.1-0.2c-0.7-1-1.9-2.7-3.8-4.9
		C103.8,1.6,103.1,1.1,102.9,1z M112.2,37.2c-2.7,0-5-1-6.9-2.9c-1.9-1.9-2.8-4.2-2.8-6.9c0-2.6,1-4.9,2.9-6.8
		c1.9-1.9,4.2-2.9,6.8-2.9c2.6,0,4.9,1,6.8,2.9c1.9,1.9,2.9,4.2,2.9,6.8c0,2.7-1,5-2.8,6.9l0,0C117.2,36.3,114.8,37.2,112.2,37.2z
		 M112.2,18.5c-2.4,0-4.5,0.9-6.3,2.7c-1.8,1.8-2.7,3.9-2.7,6.3c0,2.5,0.9,4.6,2.6,6.4c1.7,1.7,3.9,2.6,6.3,2.6
		c2.5,0,4.6-0.9,6.3-2.6l0,0c1.7-1.7,2.6-3.9,2.6-6.4c0-2.4-0.9-4.5-2.7-6.3C116.7,19.4,114.6,18.5,112.2,18.5z"/>
</g>
</svg>
