<?xml version="1.0" encoding="utf-8"?>
<!-- Generator: Adobe Illustrator 19.2.1, SVG Export Plug-In . SVG Version: 6.00 Build 0)  -->
<svg version="1.1" xmlns="http://www.w3.org/2000/svg" xmlns:xlink="http://www.w3.org/1999/xlink" x="0px" y="0px"
	 viewBox="0 0 278.3 121.3" style="enable-background:new 0 0 278.3 121.3;" xml:space="preserve">
<style type="text/css">
	.st0{fill:none;}
	.st1{fill:#FFCC00;}
</style>
<g id="Rahmen_transparent">
	<rect x="-16.9" y="-17" class="st0" width="311.8" height="155.9"/>
</g>
<g id="Logo">
	<g>
		<path d="M28.8,25.5c-3.5-1.1-6-1.7-10.2-1.7c-3.1,0-8.1,1-8.1,4.4c0,6.3,21.2,2.3,21.2,16.7c0,9.3-9.1,13-18.4,13
			c-4.3,0-8.8-0.7-12.9-1.7l0.7-8.5c3.6,1.6,7.3,2.6,11.2,2.6c2.9,0,8.9-1,8.9-4.9C21.2,37.7,0,43,0,28.6C0,20,8.3,16.2,17.2,16.2
			c5.4,0,8.8,0.8,12.4,1.5L28.8,25.5z"/>
		<polygon points="34.6,17.2 44.9,17.2 52.8,46.6 53,46.6 60.2,17.2 71.8,17.2 79.6,46.6 79.7,46.6 87.2,17.2 96.4,17.2 85.4,57 
			73.7,57 65.9,26.6 65.8,26.6 58.1,57 46.8,57 		"/>
		<path d="M100.9,57h10.4V17.2h-10.4V57z M100.9,9.9h10.4V0h-10.4V9.9z"/>
		<g>
			<path d="M147.1,25.5c-3.5-1.1-6-1.7-10.2-1.7c-3.1,0-8.1,1-8.1,4.4c0,6.3,21.2,2.3,21.2,16.7c0,9.3-9.1,13-18.4,13
				c-4.3,0-8.8-0.7-12.9-1.7l0.7-8.5c3.6,1.6,7.3,2.6,11.2,2.6c2.9,0,8.9-1,8.9-4.9c0-7.8-21.2-2.5-21.2-16.9
				c0-8.6,8.3-12.4,17.2-12.4c5.4,0,8.8,0.8,12.4,1.5L147.1,25.5z"/>
			<path d="M186.6,25.5c-3.5-1.1-6-1.7-10.2-1.7c-3.1,0-8.1,1-8.1,4.4c0,6.3,21.2,2.3,21.2,16.7c0,9.3-9.1,13-18.4,13
				c-4.3,0-8.8-0.7-12.9-1.7l0.7-8.5c3.6,1.6,7.3,2.6,11.2,2.6c2.9,0,8.9-1,8.9-4.9c0-7.8-21.2-2.5-21.2-16.9
				c0-8.6,8.3-12.4,17.2-12.4c5.4,0,8.8,0.8,12.4,1.5L186.6,25.5z"/>
			<path d="M91.8,72.7c-3.5-1.1-6-1.7-10.2-1.7c-3.1,0-8.1,1-8.1,4.4c0,6.3,21.2,2.3,21.2,16.7c0,9.3-9.1,13-18.4,13
				c-4.3,0-8.8-0.7-12.9-1.7l0.7-8.5c3.6,1.6,7.3,2.6,11.2,2.6c2.9,0,8.9-1,8.9-4.9c0-7.8-21.2-2.5-21.2-16.9
				c0-8.6,8.3-12.4,17.2-12.4c5.4,0,8.9,0.8,12.4,1.5L91.8,72.7z"/>
		</g>
		<rect x="100.9" y="64.3" width="10.4" height="39.8"/>
		<g>
			<path d="M142,83.8c0-6.8-1.7-12.4-7.1-12.4c-6.3,0-8.4,6.5-8.4,12.6c0,5.4,2.6,12.1,7.9,12.1C140.3,96.1,142,90.5,142,83.8
				 M151.3,64.3v36c0,10.8-3.9,21-18.9,21c-3.7,0-7.9-0.6-12.4-2.7l0.8-8.8c2.9,1.7,7.5,3.5,10.4,3.5c10.3,0,10.8-8.6,10.8-15.5
				h-0.1c-1.7,3.4-5.2,6.3-10.5,6.3c-10.6,0-14.6-9.4-14.6-20.1c0-9.6,4.5-20.7,15.2-20.7c4.7,0,7.7,1.8,10.3,6.3h0.1v-5.4H151.3z"
				/>
			<path d="M158.1,64.3h8.8v5.4h0.1c2.9-4.6,6.2-6.3,11.1-6.3c8.5,0,12.2,6.7,12.2,15.6v25.1h-9.3V82.9c0-4.9-0.1-11.4-6.1-11.4
				c-6.8,0-7.5,8.1-7.5,13.2v19.5h-9.3V64.3z"/>
		</g>
	</g>
	<g>
		<path d="M201.8,74.2h-3.6v-2h9.7v2h-3.6v10.6h-2.5V74.2z"/>
		<path d="M210.3,72.3h2.7c2.7,0,5.9-0.1,5.9,3.4c0,1.5-1,2.7-2.6,2.9v0c0.7,0.1,1.1,0.7,1.3,1.3l2,4.9h-2.8l-1.5-3.9
			c-0.4-0.9-0.7-1.3-1.7-1.3h-0.8v5.2h-2.5V72.3z M212.8,77.6h0.8c1.2,0,2.7-0.2,2.7-1.7c0-1.5-1.4-1.6-2.7-1.6h-0.8V77.6z"/>
		<path d="M221.9,72.3h2.5v7.3c0,2.1,0.7,3.5,2.6,3.5c1.9,0,2.6-1.4,2.6-3.5v-7.3h2.5v8c0,3.4-1.9,4.8-5.1,4.8
			c-3.2,0-5.1-1.4-5.1-4.8V72.3z"/>
		<path d="M241.7,74.6c-0.8-0.3-1.7-0.5-2.6-0.5c-0.9,0-2,0.4-2,1.7c0,2.2,5.5,1.3,5.5,5.5c0,2.8-2.2,3.8-4.7,3.8
			c-1.4,0-2-0.2-3.2-0.5l0.2-2.3c0.9,0.5,1.9,0.8,2.8,0.8c1,0,2.2-0.5,2.2-1.6c0-2.4-5.5-1.4-5.5-5.6c0-2.8,2.2-3.8,4.4-3.8
			c1.1,0,2.1,0.1,3,0.4L241.7,74.6z"/>
		<path d="M247.7,74.2h-3.6v-2h9.7v2h-3.6v10.6h-2.5V74.2z"/>
		<path d="M255.8,72.3h7.4v2h-4.9v3.1h4.5v2h-4.5v3.5h4.9v2h-7.5V72.3z"/>
		<path d="M266,72.3h3.4c3.9,0,7.3,1.3,7.3,6.3c0,5-3.4,6.3-7.3,6.3H266V72.3z M268.6,82.8h1.4c2.1,0,4.1-1.6,4.1-4.3
			c0-2.7-2-4.3-4.1-4.3h-1.4V82.8z"/>
	</g>
	<g>
		<path d="M199.9,91.6h2.5v12.6h-2.5V91.6z"/>
		<path d="M205.5,91.6h3.4c3.9,0,7.3,1.3,7.3,6.3c0,5-3.4,6.3-7.3,6.3h-3.4V91.6z M208.1,102.2h1.4c2.1,0,4.1-1.6,4.1-4.3
			c0-2.7-2-4.3-4.1-4.3h-1.4V102.2z"/>
		<path d="M218.4,91.6h7.4v2H221v3.1h4.5v2H221v3.5h4.9v2h-7.5V91.6z"/>
		<path d="M228.8,91.6h3.1l4.8,9.4h0v-9.4h2.4v12.6H236l-4.8-9.4h0v9.4h-2.4V91.6z"/>
		<path d="M244.4,93.6h-3.6v-2h9.7v2h-3.6v10.6h-2.5V93.6z"/>
		<path d="M252.1,91.6h2.5v12.6h-2.5V91.6z"/>
		<path d="M259.7,93.6h-3.6v-2h9.7v2h-3.6v10.6h-2.5V93.6z"/>
		<path d="M271.3,99.2l-4.6-7.6h3l3,5.3l3-5.3h2.7l-4.5,7.6v5h-2.5V99.2z"/>
	</g>
	<path class="st1" d="M198.9,15.6c-1.5,1.5-2.2,3.4-2.2,5.3c0,1.9,0.7,3.8,2.2,5.3c0,0,6.4,6.4,11.4,11.4l-11.4,11.4
		c-1.5,1.5-2.2,3.4-2.2,5.3c0,1.9,0.7,3.8,2.2,5.3c2.9,2.9,7.7,2.9,10.6,0l16.6-16.6c1.4-1.4,2.2-3.3,2.2-5.3c0-2-0.8-3.9-2.2-5.3
		l-16.6-16.6C206.5,12.6,201.8,12.6,198.9,15.6"/>
</g>
</svg>
